HIERARCHY
ROOT Hips
{
	OFFSET 0.000000 0.000000 0.000000
	CHANNELS 6 Xposition Yposition Zposition Zrotation Yrotation Xrotation 
	JOINT LHipJoint
	{
		OFFSET 0.000000 0.000000 0.000000
		CHANNELS 3 Zrotation Yrotation Xrotation
		JOINT LeftUpLeg
		{
			OFFSET 1.363060 -1.794630 0.839290
			CHANNELS 3 Zrotation Yrotation Xrotation
			JOINT LeftLeg
			{
				OFFSET 2.448110 -6.726130 0.000000
				CHANNELS 3 Zrotation Yrotation Xrotation
				JOINT LeftFoot
				{
					OFFSET 2.562200 -7.039590 0.000000
					CHANNELS 3 Zrotation Yrotation Xrotation
					JOINT LeftToeBase
					{
						OFFSET 0.157640 -0.433110 2.322550
						CHANNELS 3 Zrotation Yrotation Xrotation
						End Site
						{
							OFFSET 0.000000 0.000000 0.000000
						}
					}
				}
			}
		}
	}
	JOINT RHipJoint
	{
		OFFSET 0.000000 0.000000 0.000000
		CHANNELS 3 Zrotation Yrotation Xrotation
		JOINT RightUpLeg
		{
			OFFSET -1.305520 -1.794630 0.839290
			CHANNELS 3 Zrotation Yrotation Xrotation
			JOINT RightLeg
			{
				OFFSET -2.542530 -6.985550 0.000000
				CHANNELS 3 Zrotation Yrotation Xrotation
				JOINT RightFoot
				{
					OFFSET -2.568260 -7.056230 0.000000
					CHANNELS 3 Zrotation Yrotation Xrotation
					JOINT RightToeBase
					{
						OFFSET -0.164730 -0.452590 2.363150
						CHANNELS 3 Zrotation Yrotation Xrotation
						End Site
						{
							OFFSET 0.000000 0.000000 0.000000
						}
					}
				}
			}
		}
	}
	JOINT LowerBack
	{
		OFFSET 0.000000 0.000000 0.000000
		CHANNELS 3 Zrotation Yrotation Xrotation
		JOINT Spine
		{
			OFFSET 0.028270 2.035590 -0.193380
			CHANNELS 3 Zrotation Yrotation Xrotation
			JOINT Spine1
			{
				OFFSET 0.056720 2.048850 -0.042750
				CHANNELS 3 Zrotation Yrotation Xrotation
				JOINT Neck
				{
					OFFSET 0.000000 0.000000 0.000000
					CHANNELS 3 Zrotation Yrotation Xrotation
					JOINT Neck1
					{
						OFFSET -0.054170 1.746240 0.172020
						CHANNELS 3 Zrotation Yrotation Xrotation
						JOINT Head
						{
							OFFSET 0.104070 1.761360 -0.123970
							CHANNELS 3 Zrotation Yrotation Xrotation
							End Site
							{
								OFFSET 0.000000 0.000000 0.000000
							}
						}
					}
				}
				JOINT LeftShoulder
				{
					OFFSET 0.000000 0.000000 0.000000
					CHANNELS 3 Zrotation Yrotation Xrotation
					JOINT LeftArm
					{
						OFFSET 3.362410 1.200890 -0.311210
						CHANNELS 3 Zrotation Yrotation Xrotation
						JOINT LeftForeArm
						{
							OFFSET 4.983000 -0.000000 -0.000000
							CHANNELS 3 Zrotation Yrotation Xrotation
							JOINT LeftHand
							{
								OFFSET 3.483560 -0.000000 -0.000000
								CHANNELS 3 Zrotation Yrotation Xrotation
								JOINT LeftFingerBase
								{
									OFFSET 0.000000 0.000000 0.000000
									CHANNELS 3 Zrotation Yrotation Xrotation
									JOINT LeftHandIndex1
									{
										OFFSET 0.715260 -0.000000 -0.000000
										CHANNELS 3 Zrotation Yrotation Xrotation
										End Site
										{
											OFFSET 0.000000 0.000000 0.000000
										}
									}
								}
								JOINT LThumb
								{
									OFFSET 0.000000 0.000000 0.000000
									CHANNELS 3 Zrotation Yrotation Xrotation
									End Site
									{
										OFFSET 0.000000 0.000000 0.000000
									}
								}
							}
						}
					}
				}
				JOINT RightShoulder
				{
					OFFSET 0.000000 0.000000 0.000000
					CHANNELS 3 Zrotation Yrotation Xrotation
					JOINT RightArm
					{
						OFFSET -3.136600 1.374050 -0.404650
						CHANNELS 3 Zrotation Yrotation Xrotation
						JOINT RightForeArm
						{
							OFFSET -5.241900 -0.000000 -0.000000
							CHANNELS 3 Zrotation Yrotation Xrotation
							JOINT RightHand
							{
								OFFSET -3.444170 -0.000000 -0.000000
								CHANNELS 3 Zrotation Yrotation Xrotation
								JOINT RightFingerBase
								{
									OFFSET 0.000000 0.000000 0.000000
									CHANNELS 3 Zrotation Yrotation Xrotation
									JOINT RightHandIndex1
									{
										OFFSET -0.622530 -0.000000 -0.000000
										CHANNELS 3 Zrotation Yrotation Xrotation
										End Site
										{
											OFFSET 0.000000 0.000000 0.000000
										}
									}
								}
								JOINT RThumb
								{
									OFFSET 0.000000 0.000000 0.000000
									CHANNELS 3 Zrotation Yrotation Xrotation
									End Site
									{
										OFFSET 0.000000 0.000000 0.000000
									}
								}
							}
						}
					}
				}
			}
		}
	}
}
MOTION
Frames: 9
Frame Time: 0.008333
26.832386 16.408799 4.347240 173.134432 -87.518071 -149.103720 -11.733682 3.485978 -0.850844 -4.648674 6.715367 0.526234 -1.408415 0.172527 11.291971 1.341492 9.943549 0.051023 1.263801 0.000000 -74.377000 8.057645 0.397911 4.802540 4.105333 9.143738 -56.116881 2.077739 -0.928963 19.560582 -0.548022 -3.509176 7.457501 -1.981400 0.000000 -35.031200 6.639127 -3.513033 -2.480270 0.927436 -4.055409 -2.795636 -5.418684 -4.093120 3.018412 6.735484 -14.360375 -7.050294 -2.149314 -0.169095 0.117106 0.000000 0.000000 0.000000 0.454177 5.426748 2.082838 -30.633253 -8.389472 9.716772 -1.496414 -62.544423 -0.004422 1.397566 1.279097 0.016455 -0.145380 0.159260 0.000000 0.000000 0.000000 0.000000 0.000000 0.000000 0.000000 8.665896 -13.664129 1.192044 52.645132 -8.668052 -5.671850 3.896093 32.172310 0.013638 5.910224 3.705393 0.190760 0.113882 -0.052230 0.000000 0.000000 0.000000 0.000000 0.000000 0.000000 0.000000 
26.671870 16.416033 4.301081 -174.153107 -87.677447 -161.768955 -11.595523 3.459757 -0.860795 -4.025616 6.572001 0.262150 -1.250100 0.304255 12.594810 1.371677 10.263496 1.386479 1.532600 0.000000 -76.067399 8.153273 0.337785 4.754225 4.677626 9.492152 -56.218393 2.033208 -1.128475 21.026824 -0.565673 -3.425558 7.132193 -1.902200 0.000000 -34.605500 7.363186 -3.515175 -2.393030 1.073093 -4.102903 -2.789534 -5.502748 -4.140387 2.968670 6.809104 -14.116542 -7.062958 -2.241495 -0.175945 0.111232 0.000000 0.000000 0.000000 0.325191 5.409786 2.097796 -31.184418 -7.504865 9.781188 -1.536377 -62.416183 -0.004470 1.458514 1.284875 0.017284 -0.148732 0.153337 0.000000 0.000000 0.000000 0.000000 0.000000 0.000000 0.000000 9.072818 -13.457878 1.185904 52.346501 -8.173171 -5.716456 3.912405 31.942517 0.013387 5.837088 3.644227 0.185254 0.114331 -0.051405 0.000000 0.000000 0.000000 0.000000 0.000000 0.000000 0.000000 
26.512291 16.426126 4.253888 -163.332570 -87.921355 -172.577734 -11.537202 3.385346 -0.878625 -3.425670 6.453444 -0.097025 -1.065215 0.422355 14.075523 1.397775 10.541479 2.831040 1.819201 0.000000 -77.281800 8.159936 0.194363 4.700462 5.226946 9.708815 -56.216768 2.014571 -1.311533 22.378662 -0.579180 -3.286278 6.548635 -1.790800 0.000000 -34.176701 7.961258 -3.580462 -2.303477 1.200049 -4.204531 -2.781389 -5.583817 -4.242505 2.927644 6.911626 -13.846202 -7.070061 -2.339663 -0.183277 0.106640 0.000000 0.000000 0.000000 0.208014 5.411587 2.117404 -31.746674 -6.747461 9.907962 -1.582066 -62.182281 -0.004593 1.541976 1.298465 0.018416 -0.152572 0.147322 0.000000 0.000000 0.000000 0.000000 0.000000 0.000000 0.000000 9.539387 -13.260710 1.168963 52.052092 -7.660671 -5.758829 3.924848 31.705382 0.013124 5.766443 3.601799 0.180849 0.114372 -0.050342 -0.000000 0.000000 0.000000 0.000000 0.000000 0.000000 0.000000 
26.353772 16.439045 4.206067 -153.719217 -88.192708 177.793558 -11.581211 3.290381 -0.898324 -2.854792 6.393447 -0.580290 -0.865070 0.536163 15.732567 1.424765 10.777388 4.363633 2.114900 0.000000 -77.899300 8.079396 0.002974 4.631904 5.770144 9.821834 -56.097842 2.022570 -1.467837 23.596429 -0.586215 -3.107270 5.748193 -1.660400 -0.000000 -33.646700 8.419552 -3.676381 -2.213311 1.297017 -4.326862 -2.777078 -5.664462 -4.365560 2.878482 7.036153 -13.553508 -7.056317 -2.445862 -0.191492 0.107921 0.000000 0.000000 0.000000 0.130435 5.325257 2.132089 -32.365180 -5.926268 10.042203 -1.628123 -61.916898 -0.004691 1.626770 1.311842 0.019641 -0.156080 0.140895 0.000000 0.000000 0.000000 0.000000 0.000000 0.000000 0.000000 10.055108 -13.060113 1.151106 51.761086 -7.139830 -5.783760 3.935910 31.453513 0.012930 5.681421 3.597739 0.177844 0.114342 -0.049308 -0.000000 0.000000 0.000000 0.000000 0.000000 0.000000 0.000000 
26.196409 16.454638 4.157381 -145.418536 -88.434622 169.466108 -11.703266 3.198745 -0.912094 -2.343170 6.379876 -1.195891 -0.662974 0.650752 17.543635 1.462695 11.011747 5.942981 2.417400 -0.000000 -77.750200 7.947643 -0.190881 4.544592 6.304288 9.850380 -55.870718 2.050980 -1.593291 24.672750 -0.585755 -2.896712 4.798184 -1.520600 0.000000 -33.091200 8.748749 -3.772358 -2.124360 1.361196 -4.440545 -2.773713 -5.747292 -4.479422 2.831667 7.180881 -13.244702 -7.031945 -2.556734 -0.200153 0.112081 0.000000 0.000000 0.000000 0.069446 5.241704 2.142466 -32.997414 -5.169541 10.226563 -1.676434 -61.572789 -0.004784 1.717570 1.327101 0.020964 -0.159381 0.134148 0.000000 0.000000 0.000000 0.000000 0.000000 0.000000 0.000000 10.611812 -12.848495 1.128884 51.490620 -6.602101 -5.820971 3.946211 31.185630 0.012813 5.587815 3.630257 0.176341 0.114236 -0.048393 -0.000000 0.000000 0.000000 0.000000 0.000000 0.000000 0.000000 
26.040845 16.472845 4.108149 -137.803002 -88.651387 161.819909 -11.873346 3.109939 -0.919230 -1.883156 6.408043 -1.946853 -0.464646 0.763358 19.500031 1.515040 11.257899 7.516419 2.720800 0.000000 -76.734300 7.791151 -0.374057 4.444459 6.835521 9.809136 -55.542443 2.096614 -1.688744 25.589670 -0.581903 -2.674622 3.756321 -1.381200 0.000000 -32.490300 8.987468 -3.858084 -2.039883 1.400891 -4.538255 -2.771456 -5.832906 -4.576837 2.787320 7.341078 -12.927192 -6.997558 -2.671048 -0.209157 0.118986 0.000000 0.000000 0.000000 0.021070 5.159543 2.148151 -33.642818 -4.480555 10.463188 -1.726559 -61.153812 -0.004847 1.808723 1.341207 0.022383 -0.162330 0.127150 0.000000 0.000000 0.000000 0.000000 0.000000 0.000000 0.000000 11.198807 -12.629439 1.103276 51.244693 -6.044562 -5.875524 3.956027 30.898238 0.012787 5.479307 3.702382 0.176240 0.114136 -0.047669 -0.000000 0.000000 0.000000 0.000000 0.000000 0.000000 0.000000 
25.887003 16.493537 4.058617 -130.485604 -88.850666 154.472996 -12.071595 3.020081 -0.919153 -1.477125 6.464984 -2.829475 -0.275441 0.870368 21.586330 1.583740 11.534726 9.019139 3.021100 -0.000000 -74.796400 7.624130 -0.541999 4.337022 7.359473 9.707731 -55.125519 2.155358 -1.755839 26.337400 -0.577431 -2.455758 2.683066 -1.249700 -0.000001 -31.857800 9.156573 -3.928974 -1.963460 1.421279 -4.617192 -2.770852 -5.920808 -4.655136 2.745007 7.512226 -12.604460 -6.953037 -2.787419 -0.218396 0.128705 0.000000 0.000000 0.000000 -0.018316 5.073615 2.149532 -34.298405 -3.857419 10.752969 -1.777928 -60.668618 -0.004860 1.892942 1.352903 0.023597 -0.164812 0.119942 0.000000 0.000000 0.000000 0.000000 0.000000 0.000000 0.000000 11.804814 -12.404239 1.075583 51.030488 -5.469223 -5.956746 3.965404 30.588911 0.012850 5.353336 3.812068 0.177139 0.114078 -0.047181 -0.000000 0.000000 0.000000 0.000000 0.000000 0.000000 0.000000 
25.735285 16.516586 4.008832 -123.389397 -89.033935 147.354760 -12.280479 2.927670 -0.912281 -1.135754 6.536164 -3.833258 -0.102235 0.970108 23.779986 1.668879 11.863421 10.379692 3.316300 0.000000 -71.969000 7.458616 -0.690174 4.226249 7.866212 9.555278 -54.635402 2.222293 -1.796709 26.915861 -0.573204 -2.247321 1.634734 -1.129900 0.000001 -31.251099 9.267552 -3.981450 -1.896270 1.425170 -4.674797 -2.771918 -6.010703 -4.711832 2.704557 7.690923 -12.275416 -6.898792 -2.904340 -0.227741 0.141099 0.000000 0.000000 0.000000 -0.053997 4.985817 2.147860 -34.955579 -3.302510 11.096732 -1.830091 -60.127083 -0.004812 1.962286 1.364310 0.024806 -0.166767 0.112544 0.000000 0.000000 0.000000 0.000000 0.000000 0.000000 0.000000 12.419450 -12.169246 1.047175 50.857764 -4.878950 -6.078922 3.974387 30.256063 0.012989 5.213583 3.951297 0.178640 0.114047 -0.046949 -0.000000 0.000000 0.000000 0.000000 0.000000 0.000000 0.000000 
25.586196 16.541926 3.959582 -115.850554 -89.207342 139.801619 -12.505038 2.825594 -0.901014 -0.842559 6.623803 -4.956892 0.051496 1.062790 26.071212 1.766012 12.237562 11.528476 3.596300 0.000000 -68.345800 7.284326 -0.827499 4.117177 8.361983 9.372984 -54.077414 2.296243 -1.811056 27.314470 -0.571432 -2.065895 0.652955 -1.027200 -0.000000 -30.602800 9.335430 -4.015568 -1.839328 1.416449 -4.712162 -2.776689 -6.101019 -4.748262 2.660004 7.872009 -11.949693 -6.831845 -3.021777 -0.237240 0.157091 0.000000 0.000000 0.000000 -0.082379 4.850373 2.141128 -35.632359 -2.744397 11.467355 -1.880401 -59.566395 -0.004672 2.010297 1.367647 0.025510 -0.167954 0.104979 0.000000 0.000000 0.000000 0.000000 0.000000 0.000000 0.000000 13.034733 -11.934159 1.022524 50.713902 -4.264599 -6.202263 3.982915 29.895121 0.013201 5.039813 4.120868 0.179842 0.114204 -0.046975 -0.000000 0.000000 0.000000 0.000000 0.000000 0.000000 0.000000 
